<svg id="Top_P2E_NFT-Powered_Blockchain_Games_2021_-_2022_by_Chainplay.gg-0" data-name="Top P2E NFT-Powered, Blockchain Games (2021 - 2022) by Chainplay.gg-0" xmlns="http://www.w3.org/2000/svg" xmlns:xlink="http://www.w3.org/1999/xlink" width="76.987" height="32.078" viewBox="0 0 76.987 32.078">
  <defs>
    <clipPath id="clip-path">
      <rect id="Rectangle_7" data-name="Rectangle 7" width="76.185" height="30.073" fill="none"/>
    </clipPath>
  </defs>
  <rect id="Rectangle_4" data-name="Rectangle 4" width="76.185" height="32.078" transform="translate(0.401 0)" fill="none"/>
  <rect id="Rectangle_5" data-name="Rectangle 5" width="76.185" height="30.073" transform="translate(0.401 1.002)" fill="none"/>
  <rect id="Rectangle_6" data-name="Rectangle 6" width="76.185" height="30.073" transform="translate(0.401 1.002)" fill="none"/>
  <g id="Group_8" data-name="Group 8" transform="translate(0 30.795)">
    <path id="Path_9" data-name="Path 9" d="M0,48H76.987" transform="translate(0 -48)" fill="none"/>
  </g>
  <g id="Group_9" data-name="Group 9" transform="translate(76.987 1.283)">
    <path id="Path_10" data-name="Path 10" d="M120,2V31.512" transform="translate(-120 -2)" fill="none"/>
  </g>
  <g id="Group_11" data-name="Group 11" transform="translate(0.401 1.002)">
    <g id="Group_10" data-name="Group 10" transform="translate(0 0)" clip-path="url(#clip-path)">
      <path id="Path_11" data-name="Path 11" d="M0,2.091.917,4.263l.917.686.917-.314.917.776.917.077L5.5,8.056l.917,2.52L7.332,11l.916-.762.917-.032.917-3.153L11,10.441l.916,1.134.917,2.177.917-.363.916.2.917,2.3.917,2.385.917-1.132.916-.756.917-.339.917-.625.916.521L22,15.092l.917.745.917,1.908.916-1.143.917-.175.917-.677.916.016.917-.436.917-.048.917.2.916.236.917.612.917,1.694.916-.492.917.022.917,1.635.917.231.916,1.063.917.158.917.048.916-.245.917-.923.917-.2.917-.2.916-.01.917,1.228.917.744.916-.374.917.366.917-.221.917-.627.916-.269.917-.018.917.683.916.181.917.855.917.081.917.224.916-.221.917-.638.917-.057.916,1.343.917,1.864.917,1.695.917.175.916-.352.917-.126.917,1.929.916.533.917.16.916.308.917-.635.916.736.917.243.917-.143L72.4,28.6l.917-2.061.916-1.219.917.473.916-.007.917-.225" transform="translate(-0.401 -0.469)" fill="none" stroke="#e15241" stroke-linecap="round" stroke-linejoin="round" stroke-width="1"/>
    </g>
  </g>
</svg>
