<svg id="globe" xmlns="http://www.w3.org/2000/svg" width="22.001" height="22.001" viewBox="0 0 22.001 22.001">
  <g id="Group_1213" data-name="Group 1213">
    <path id="Path_4060" data-name="Path 4060" d="M11,0A11,11,0,1,0,22,11,11,11,0,0,0,11,0Zm2.954,6.417H8.047A17.98,17.98,0,0,1,11,2.211,17.94,17.94,0,0,1,13.954,6.417Zm.733,1.833A9.362,9.362,0,0,1,15.124,11a9.362,9.362,0,0,1-.436,2.75H7.312A9.36,9.36,0,0,1,6.875,11a9.36,9.36,0,0,1,.436-2.75ZM8.617,2.16A18.038,18.038,0,0,0,6.026,6.417H3.074A9.2,9.2,0,0,1,8.617,2.16ZM1.833,11a9.154,9.154,0,0,1,.423-2.75H5.409A11.015,11.015,0,0,0,5.042,11a11.015,11.015,0,0,0,.367,2.75H2.256A9.154,9.154,0,0,1,1.833,11Zm1.24,4.584H6.026a18.038,18.038,0,0,0,2.591,4.257A9.2,9.2,0,0,1,3.074,15.584Zm4.973,0h5.907A17.98,17.98,0,0,1,11,19.79a17.941,17.941,0,0,1-2.954-4.206Zm5.342,4.257a18.037,18.037,0,0,0,2.586-4.257h2.953a9.2,9.2,0,0,1-5.539,4.257ZM20.168,11a9.154,9.154,0,0,1-.423,2.75H16.592A11.015,11.015,0,0,0,16.959,11a11.015,11.015,0,0,0-.367-2.75h3.151A9.153,9.153,0,0,1,20.168,11ZM15.975,6.417A18.037,18.037,0,0,0,13.389,2.16a9.2,9.2,0,0,1,5.539,4.257Z" fill="#ff9017"/>
  </g>
</svg>
