<svg xmlns="http://www.w3.org/2000/svg" width="24" height="19.504" viewBox="0 0 24 19.504">
  <path id="twitter" d="M24,4.557a9.842,9.842,0,0,1-2.828.775,4.938,4.938,0,0,0,2.165-2.724A9.859,9.859,0,0,1,20.21,3.8,4.929,4.929,0,0,0,11.82,8.294,13.979,13.979,0,0,1,1.671,3.149,4.929,4.929,0,0,0,3.195,9.723a4.9,4.9,0,0,1-2.23-.616c0,.021,0,.041,0,.062A4.927,4.927,0,0,0,4.914,14a4.936,4.936,0,0,1-2.224.084A4.929,4.929,0,0,0,7.29,17.5a9.88,9.88,0,0,1-6.115,2.108A10.01,10.01,0,0,1,0,19.54a13.937,13.937,0,0,0,7.548,2.212A13.914,13.914,0,0,0,21.557,7.743q0-.32-.014-.637A10.006,10.006,0,0,0,24,4.557Z" transform="translate(0 -2.248)" fill="#1da1f2"/>
</svg>
