<svg id="ios" xmlns="http://www.w3.org/2000/svg" width="14.314" height="16.713" viewBox="0 0 14.314 16.713">
  <path id="Path_7" data-name="Path 7" d="M15.611,13.364a2.541,2.541,0,0,1-1.641-2.229,2.441,2.441,0,0,1,1.3-2.36l.736-.4-.525-.654A4.458,4.458,0,0,0,12.1,5.962a5.038,5.038,0,0,0-1.923.4,2.53,2.53,0,0,1-.892.227,3.191,3.191,0,0,1-1.039-.252,5.058,5.058,0,0,0-1.786-.378A4.546,4.546,0,0,0,2.778,8.141c-1.3,2-.945,5.439.85,8.169.711,1.082,1.708,2.324,3.119,2.337h.027c1.156,0,1.409-.616,2.53-.623,1.225.058,1.38.628,2.524.62,1.379-.013,2.374-1.246,3.164-2.45A11.17,11.17,0,0,0,16,14.311l.308-.682Z" transform="translate(-1.998 -1.935)" fill="#94a3b8"/>
  <path id="Path_8" data-name="Path 8" d="M14.18,2.5a3.049,3.049,0,0,0,.678-2.26,3.3,3.3,0,0,0-2.129,1.145,2.833,2.833,0,0,0-.7,2.2A2.785,2.785,0,0,0,14.18,2.5Z" transform="translate(-4.966 -0.236)" fill="#94a3b8"/>
</svg>
