<svg id="Page-1" xmlns="http://www.w3.org/2000/svg" xmlns:xlink="http://www.w3.org/1999/xlink" width="24" height="24" viewBox="0 0 24 24">
  <defs>
    <linearGradient id="linear-gradient" x1="0.667" y1="0.167" x2="0.417" y2="0.75" gradientUnits="objectBoundingBox">
      <stop offset="0" stop-color="#37aee2"/>
      <stop offset="1" stop-color="#1e96c8"/>
    </linearGradient>
    <linearGradient id="linear-gradient-2" x1="0.66" y1="0.437" x2="0.851" y2="0.802" gradientUnits="objectBoundingBox">
      <stop offset="0" stop-color="#eff7fc"/>
      <stop offset="1" stop-color="#fff"/>
    </linearGradient>
  </defs>
  <g id="telegram">
    <circle id="Oval" cx="12" cy="12" r="12" fill="url(#linear-gradient)"/>
    <path id="Path" d="M9.8,17.5c-.389,0-.323-.147-.457-.517L8.2,13.221,17,8" fill="#c8daea"/>
    <path id="Path-2" data-name="Path" d="M9.8,17.5a.769.769,0,0,0,.6-.3L12,15.644l-2-1.2" fill="#a9c9dd"/>
    <path id="Path-3" data-name="Path" d="M10,14.441l4.836,3.573c.552.3.95.147,1.088-.512L17.9,8.225c.2-.808-.308-1.175-.836-.935L5.5,11.748c-.789.316-.784.757-.144.953l2.966.926,6.867-4.332c.324-.2.622-.091.378.126" fill="url(#linear-gradient-2)"/>
  </g>
</svg>
