<svg xmlns="http://www.w3.org/2000/svg" xmlns:xlink="http://www.w3.org/1999/xlink" width="17" height="18" viewBox="0 0 17 18">
  <defs>
    <clipPath id="clip-path">
      <rect id="Rectangle_3" data-name="Rectangle 3" width="17" height="18" transform="translate(0.432 0.354)" fill="#fff"/>
    </clipPath>
  </defs>
  <g id="android" transform="translate(-0.432 -0.354)" clip-path="url(#clip-path)">
    <path id="Path_6" data-name="Path 6" d="M4.813,12.659a.705.705,0,0,0,.7.7h.7v2.462a1.055,1.055,0,0,0,2.11,0V13.362H9.736v2.462a1.055,1.055,0,0,0,2.11,0V13.362h.7a.705.705,0,0,0,.7-.7V5.626H4.813ZM3.055,5.626A1.054,1.054,0,0,0,2,6.681V11.6a1.055,1.055,0,1,0,2.11,0V6.681A1.054,1.054,0,0,0,3.055,5.626Zm11.956,0a1.054,1.054,0,0,0-1.055,1.055V11.6a1.055,1.055,0,1,0,2.11,0V6.681A1.054,1.054,0,0,0,15.011,5.626Zm-3.5-4.107L12.43.6a.348.348,0,0,0,0-.5.348.348,0,0,0-.5,0L10.89,1.146A4.107,4.107,0,0,0,9.033.7a4.166,4.166,0,0,0-1.871.443L6.114.105a.348.348,0,0,0-.5,0,.348.348,0,0,0,0,.5l.921.921a4.208,4.208,0,0,0-1.723,3.4h8.439A4.2,4.2,0,0,0,11.515,1.519Zm-3.889,2h-.7v-.7h.7Zm3.516,0h-.7v-.7h.7Z" transform="translate(-0.288 1.087)" fill="#94a3b8"/>
  </g>
</svg>
