<svg id="discord" xmlns="http://www.w3.org/2000/svg" width="24" height="18.293" viewBox="0 0 24 18.293">
  <path id="Shape" d="M20.317,1.516A19.791,19.791,0,0,0,15.432,0a.074.074,0,0,0-.078.037,13.766,13.766,0,0,0-.608,1.249,18.271,18.271,0,0,0-5.487,0A12.643,12.643,0,0,0,8.641.038.077.077,0,0,0,8.562,0,19.736,19.736,0,0,0,3.677,1.516a.07.07,0,0,0-.032.028A20.255,20.255,0,0,0,.1,15.2a.082.082,0,0,0,.031.056A19.9,19.9,0,0,0,6.123,18.29a.077.077,0,0,0,.084-.028,14.22,14.22,0,0,0,1.226-1.994.076.076,0,0,0-.042-.106A13.108,13.108,0,0,1,5.52,15.27a.077.077,0,0,1-.008-.128c.126-.094.252-.192.372-.292a.074.074,0,0,1,.078-.01,14.194,14.194,0,0,0,12.061,0,.074.074,0,0,1,.078.009c.12.1.246.2.373.292a.077.077,0,0,1-.007.128,12.3,12.3,0,0,1-1.873.891.077.077,0,0,0-.041.107,15.987,15.987,0,0,0,1.225,1.993.076.076,0,0,0,.084.028,19.836,19.836,0,0,0,6-3.029.077.077,0,0,0,.031-.055,20.122,20.122,0,0,0-3.549-13.66A.061.061,0,0,0,20.317,1.516ZM8.02,12.478a2.307,2.307,0,0,1-2.157-2.419A2.294,2.294,0,0,1,8.02,7.64a2.281,2.281,0,0,1,2.157,2.419A2.294,2.294,0,0,1,8.02,12.478Zm7.975,0a2.307,2.307,0,0,1-2.157-2.419A2.294,2.294,0,0,1,15.995,7.64a2.281,2.281,0,0,1,2.157,2.419A2.288,2.288,0,0,1,15.995,12.478Z" fill="#5865f2"/>
</svg>
